<svg width="122" height="110" viewBox="0 0 122 110" fill="none" xmlns="http://www.w3.org/2000/svg">
<path d="M47.1406 58.3782C43.6139 51.9198 34.3748 50.0581 26.5072 54.2182C18.6396 58.3782 16.1905 66.5401 19.7187 73.0001L21.5463 71.0722C24.3183 68.1758 25.5643 67.6035 28.967 65.4316C28.967 65.4316 38.2964 58.6026 47.1421 58.3782H47.1406Z" fill="#C1F6FD"/>
<path d="M48.1421 56.568C44.6315 55.2341 40.7159 56.3242 37.756 59.0602C36.1193 60.5915 34.8623 62.4898 34.0864 64.6017C31.671 71.0745 34.0489 77.9666 39.3972 80.0001C39.7183 71.5333 42.8478 63.1437 48.1421 56.568Z" fill="#E9EAEB"/>
<path d="M84.7026 67.0001C86.9196 58.5002 80.5319 49.4347 70.4363 46.7522C68.9138 46.3462 67.3533 46.1025 65.7805 46.0252C57.4331 45.6221 50.0145 50.1004 48.1421 57.2836C60.9072 56.4507 73.9977 59.9303 84.7026 67.0001Z" fill="#E9EAEB"/>
<path d="M77.1421 44.7057C74.5183 38.0254 65.8451 35.1374 57.7704 38.2566C52.655 40.233 49.0051 44.1461 47.6851 48.4479C46.9218 50.9339 46.9367 53.5524 47.8989 56.0001C47.8989 56.0001 60.706 43.5437 77.1406 44.7057H77.1421Z" fill="#C1F6FD"/>
<path d="M11.1421 49.5281C11.1421 49.5281 30.0193 48.1435 46.2933 53.3552L47.4677 54.0001C47.4677 54.0001 50.8417 44.0071 42.4962 39.8007C35.4952 36.2742 17.8134 33.2102 11.1421 49.5266V49.5281Z" fill="#C1F6FD"/>
<path d="M52.3022 62.9672C55.9213 73.207 58.6799 88.0634 56.6862 108.182" stroke="#2A5082" stroke-width="2"/>
<path d="M46.6995 56.8145C43.2639 50.4204 34.2633 48.5774 26.5988 52.6959C18.9342 56.8145 15.5046 65.3394 18.9417 71.7335C21.6548 68.8616 24.702 66.325 28.0183 64.1778" stroke="#2A5082" stroke-width="2" stroke-linejoin="bevel"/>
<path d="M76.8362 42.9692C73.7585 36.3962 64.8742 34.0596 56.9934 37.7502C51.9995 40.0883 48.6086 44.2859 47.5753 48.7206C46.9788 51.2854 47.1697 53.9277 48.2985 56.336" stroke="#2A5082" stroke-width="2" stroke-linejoin="bevel"/>
<path d="M48.2875 56.7147C44.7982 55.401 40.9063 56.4746 37.9643 59.1691C36.3375 60.6773 35.0881 62.5468 34.3169 64.6268C31.9162 71.0015 34.2796 77.7892 39.5956 79.7918C39.9147 71.4533 43.0253 63.1908 48.2875 56.7147V56.7147Z" stroke="#2A5082" stroke-width="2" stroke-linejoin="bevel"/>
<path d="M84.699 66.5905C86.9342 58.0999 80.4939 49.0441 70.3153 46.3645C68.7803 45.959 67.207 45.7156 65.6212 45.6383C57.2051 45.2357 49.7254 49.7092 47.8376 56.8846C60.7078 56.0525 73.906 59.5284 84.699 66.5905V66.5905Z" stroke="#2A5082" stroke-width="2" stroke-linejoin="bevel"/>
<path d="M43.6682 42.9378C43.5363 42.8107 43.4025 42.6854 43.2671 42.5621C40.6188 40.1404 37.0639 38.1676 33.005 37.1656C22.7876 34.6425 12.8684 40.0644 11 48.643C14.4237 48.276 17.8728 48.2076 21.3084 48.4387" stroke="#2A5082" stroke-width="2" stroke-linejoin="bevel"/>
<path d="M76.8377 42.9691L74.7039 42.7827" stroke="#2A5082" stroke-width="2" stroke-linejoin="bevel"/>
<path d="M81.818 48.2169C70.355 48.2169 61.061 57.5099 61.061 68.9729C61.061 86.8849 78.761 89.3069 80.249 107.519C80.314 108.347 80.984 109 81.817 109C82.648 109 83.317 108.347 83.381 107.519C84.87 89.3069 102.571 86.8849 102.571 68.9729C102.573 57.5099 93.278 48.2169 81.818 48.2169Z" fill="#C1F6FD" stroke="#2A5082" stroke-width="2"/>
<path d="M81.678 76.7099C85.8742 76.7099 89.276 73.3081 89.276 69.1119C89.276 64.9156 85.8742 61.5139 81.678 61.5139C77.4817 61.5139 74.08 64.9156 74.08 69.1119C74.08 73.3081 77.4817 76.7099 81.678 76.7099Z" fill="white" stroke="#2A5082" stroke-width="2"/>
<path d="M7.59802 109H102.573" stroke="#2A5082" stroke-width="2"/>
<path d="M68.381 12.1269H55.272C54.301 10.2279 52.014 8.26994 49.348 8.26994C48.503 8.26994 47.697 8.46994 46.957 8.76694C45.471 4.80694 41.662 1.83594 37.183 1.83594C31.421 1.83594 26.749 8.32894 26.738 12.1279H11.397" stroke="#BCC0C4" stroke-width="2"/>
<path d="M20.894 27.3229H7.59802" stroke="#BCC0C4" stroke-width="2"/>
<path d="M121.566 21.625H115.917C114.604 17.826 111.877 16.879 108.61 17.275C107.185 14.82 104.561 13.309 101.516 13.309C96.996 13.309 93.334 15.927 93.293 21.625H85.475" stroke="#BCC0C4" stroke-width="2"/>
<path d="M24.693 27.3229H28.493" stroke="#BCC0C4" stroke-width="2"/>
<path d="M72.181 12.127H75.979" stroke="#BCC0C4" stroke-width="2"/>
<path d="M79.778 12.127H83.577" stroke="#BCC0C4" stroke-width="2"/>
<path d="M3.799 109H0" stroke="#2A5082" stroke-width="2"/>
<path d="M106.37 109H113.969" stroke="#2A5082" stroke-width="2"/>
<path d="M117.768 109H121.566" stroke="#2A5082" stroke-width="2"/>
</svg>
