<svg width="118" height="117" viewBox="0 0 118 117" fill="none" xmlns="http://www.w3.org/2000/svg">
<path d="M54.643 110.337C77.749 110.337 96.48 91.6059 96.48 68.5C96.48 45.394 77.749 26.663 54.643 26.663C31.5371 26.663 12.806 45.394 12.806 68.5C12.806 91.6059 31.5371 110.337 54.643 110.337Z" fill="#E9EAEB"/>
<path d="M57.64 86.5369C56.416 83.0439 53.117 80.7029 49.412 80.7029H37.21V68.4999L40.696 71.9859C40.696 71.9859 48.248 71.9859 52.898 71.9859C60.872 71.9859 59.871 63.2699 59.871 63.2699H47.669L35.467 51.0679H28.494C24.644 51.0679 21.522 54.1899 21.522 58.0409V84.1879C21.522 89.9629 26.205 94.6469 31.981 94.6469H47.669L58.128 115.566H67.798L57.64 86.5369Z" fill="#C1F6FD"/>
<path d="M33.7241 45.674C28.8571 45.674 25.0081 41.692 25.0081 36.78V33.814C25.0081 28.901 28.8571 24.92 33.7241 24.92C38.5921 24.92 42.4401 28.901 42.4401 33.814V36.78C42.4391 41.692 38.5911 45.674 33.7241 45.674Z" fill="white" stroke="#2A5082" stroke-width="2"/>
<path d="M37.21 71.986H98.222" stroke="#2A5082" stroke-width="2"/>
<path d="M63.3571 65.014H73.8171V71.986" stroke="#2A5082" stroke-width="2"/>
<path d="M80.79 71.986V65.014H87.763H91.249V44.095H82.533" stroke="#2A5082" stroke-width="2"/>
<path d="M80.79 58.041H75.561V21.434H80.79C82.715 21.434 84.276 22.995 84.276 24.92V54.554C84.276 56.48 82.715 58.041 80.79 58.041Z" fill="white" stroke="#2A5082" stroke-width="2"/>
<path d="M30.2371 105.106V115.566" stroke="#2A5082" stroke-width="2"/>
<path d="M58.1281 115.566L47.6691 94.6469H31.9801C26.2041 94.6469 21.5211 89.9629 21.5211 84.1879V58.0409C21.5211 54.1899 24.6431 51.0679 28.4931 51.0679H35.4661L47.6681 63.2699H59.8701C59.8701 63.2699 60.8711 71.9859 52.8971 71.9859C48.2481 71.9859 40.6951 71.9859 40.6951 71.9859L30.2371 61.5269" stroke="#2A5082" stroke-width="2"/>
<path d="M37.21 68.4999V80.7029H49.412C53.117 80.7029 56.416 83.0439 57.64 86.5369L67.799 115.566" stroke="#2A5082" stroke-width="2"/>
<path d="M14.548 54.5549V87.6759C14.548 95.3759 20.793 101.62 28.493 101.62H44.182" stroke="#2A5082" stroke-width="2"/>
<path d="M14.548 80.7029H28.494L33.724 87.6759" stroke="#2A5082" stroke-width="2"/>
<path d="M101.709 71.986H105.195" stroke="#2A5082" stroke-width="2"/>
<path d="M11.345 114.822H103" stroke="#2A5082" stroke-width="2"/>
<path d="M104.452 114.822H111.785" stroke="#2A5082" stroke-width="2"/>
<path d="M114.334 114.822H118" stroke="#2A5082" stroke-width="2"/>
<path d="M4.83405 114.822H8.50005" stroke="#2A5082" stroke-width="2"/>
<path d="M102.283 26.8489V34.9719" stroke="#BCC0C4" stroke-width="2"/>
<path d="M106.344 30.91H98.222" stroke="#BCC0C4" stroke-width="2"/>
<path fill-rule="evenodd" clip-rule="evenodd" d="M110.405 16.0199C112.648 16.0199 114.467 14.2013 114.467 11.9579C114.467 9.71455 112.648 7.89594 110.405 7.89594C108.162 7.89594 106.343 9.71455 106.343 11.9579C106.343 14.2013 108.162 16.0199 110.405 16.0199Z" stroke="#BCC0C4" stroke-width="2"/>
<path d="M58.936 11.6519H46.287C45.349 9.81895 43.142 7.92995 40.57 7.92995C39.754 7.92995 38.976 8.12295 38.262 8.40995C36.828 4.58795 33.152 1.72095 28.83 1.72095C23.269 1.72095 18.761 7.98695 18.75 11.6529H3.94501" stroke="#BCC0C4" stroke-width="2"/>
<path d="M13.109 26.3159H0.278015" stroke="#BCC0C4" stroke-width="2"/>
<path d="M16.775 26.3159H20.443" stroke="#BCC0C4" stroke-width="2"/>
<path d="M62.604 11.652H66.268" stroke="#BCC0C4" stroke-width="2"/>
<path d="M69.936 11.652H73.602" stroke="#BCC0C4" stroke-width="2"/>
</svg>
