<svg width="114" height="115" viewBox="0 0 114 115" fill="none" xmlns="http://www.w3.org/2000/svg">
<path d="M7.34497 113.822H99" stroke="#2A5082" stroke-width="2"/>
<path d="M100.452 113.822H107.785" stroke="#2A5082" stroke-width="2"/>
<path d="M110.334 113.822H114" stroke="#2A5082" stroke-width="2"/>
<path d="M0.833984 113.822H4.49998" stroke="#2A5082" stroke-width="2"/>
<path d="M35.714 92.8539C32.544 92.8539 29.973 90.2839 29.973 87.1139V36.5159C18.056 42.5509 9.88196 54.9049 9.88196 69.1759C9.88196 89.3859 26.266 105.771 46.477 105.771C57.655 105.771 67.656 100.754 74.368 92.8549H35.714V92.8539Z" fill="#E9EAEB"/>
<path d="M62.98 92.8539H35.714C32.544 92.8539 29.973 90.2839 29.973 87.1139V23.9699C29.973 20.7999 32.543 18.2289 35.714 18.2289H83.072C86.242 18.2289 88.812 20.7989 88.812 23.9699V61.2819" stroke="#2A5082" stroke-width="2"/>
<path d="M57.24 81.374H35.714V29.71H83.072V61.282" stroke="#2A5082" stroke-width="2"/>
<path d="M90.2479 68.4579H87.3779C87.3779 66.8439 85.8529 65.5879 84.5079 65.5879H81.6379C81.0879 64.7259 79.6709 64.1519 78.7669 64.1519H75.8969V54.1069C75.8969 52.5219 74.6119 51.2369 73.0269 51.2369C71.4419 51.2369 70.1569 52.5219 70.1569 54.1069V75.6339L68.2399 77.4739L64.4899 71.6609C62.1909 68.4979 58.6769 70.2729 58.6769 71.6609C58.6769 71.6609 63.0309 85.5539 63.6549 86.5289C64.6569 88.0989 68.7229 91.6279 68.7229 92.8549C68.7229 94.0839 68.7229 98.5959 68.7229 98.5959H90.2489C90.2489 98.5959 90.2489 96.2229 90.2489 94.2899C90.2489 92.3549 93.1189 90.0189 93.1189 87.1139V71.3279C93.1179 69.7139 91.5939 68.4579 90.2479 68.4579Z" fill="white"/>
<path d="M68.722 98.5959C68.722 98.5959 68.722 94.0829 68.722 92.8549C68.722 91.6269 64.656 88.0989 63.654 86.5289C63.031 85.5529 58.676 71.6609 58.676 71.6609C58.676 70.2729 62.191 68.4979 64.489 71.6609L68.239 77.4739L70.156 75.6339V54.1069C70.156 52.5219 71.441 51.2369 73.026 51.2369V51.2369C74.611 51.2369 75.896 52.5219 75.896 54.1069V72.7639V71.3279V64.1519H78.766C79.67 64.1519 81.087 64.7249 81.637 65.5879H84.507C85.852 65.5879 87.377 66.8439 87.377 68.4579H90.247C91.593 68.4579 93.117 69.7139 93.117 71.3279V87.1139C93.117 90.0179 90.247 92.3549 90.247 94.2899C90.247 96.2229 90.247 98.5959 90.247 98.5959" stroke="#2A5082" stroke-width="2"/>
<path d="M81.6379 65.588V72.764" stroke="#2A5082" stroke-width="2"/>
<path d="M87.378 68.4579V74.1979" stroke="#2A5082" stroke-width="2"/>
<rect x="65.852" y="97.16" width="27.267" height="16.176" fill="#C1F6FD"/>
<path d="M93.118 113.336V97.16H65.852V113.336" stroke="#2A5082" stroke-width="2"/>
<path d="M54.37 23.97H65.852" stroke="#2A5082" stroke-width="2"/>
<path d="M58.705 49.8019H41.484L41.454 35.4509H58.676L58.705 49.8019Z" fill="white" stroke="#2A5082" stroke-width="2"/>
<path d="M62.9799 38.3209H78.7669" stroke="#2A5082" stroke-width="2"/>
<path d="M62.9799 44.0609H74.462" stroke="#2A5082" stroke-width="2"/>
<path d="M40.019 55.5419H60.11" stroke="#2A5082" stroke-width="2"/>
<path d="M40.019 61.2819H60.11" stroke="#2A5082" stroke-width="2"/>
<path d="M40.019 67.022H51.5" stroke="#2A5082" stroke-width="2"/>
<path d="M59.666 11.8329H47.016C46.079 9.99992 43.872 8.11092 41.299 8.11092C40.483 8.11092 39.705 8.30392 38.991 8.59092C37.557 4.76892 33.881 1.90192 29.559 1.90192C23.998 1.90192 19.49 8.16792 19.479 11.8339H4.67499" stroke="#BCC0C4" stroke-width="2"/>
<path d="M13.839 26.4979H1.008" stroke="#BCC0C4" stroke-width="2"/>
<path d="M17.505 26.4979H21.173" stroke="#BCC0C4" stroke-width="2"/>
<path d="M63.333 11.8329H66.998" stroke="#BCC0C4" stroke-width="2"/>
<path d="M70.665 11.8329H74.331" stroke="#BCC0C4" stroke-width="2"/>
</svg>
