<svg width="108" height="15" viewBox="0 0 108 15" fill="none" xmlns="http://www.w3.org/2000/svg">
<path d="M14.517 5.04248L10.0197 4.38915L8.00935 0.315161C7.95444 0.203618 7.8641 0.113321 7.75251 0.0584341C7.47265 -0.0796674 7.13256 0.0354172 6.99263 0.315161L4.98223 4.38915L0.484949 5.04248C0.360959 5.06018 0.247597 5.11861 0.160805 5.20714C0.055877 5.31494 -0.00194293 5.45997 4.98543e-05 5.61036C0.00204264 5.76076 0.063685 5.9042 0.171432 6.00919L3.42527 9.18021L2.65654 13.6579C2.63851 13.762 2.65004 13.8692 2.68982 13.9671C2.72961 14.0651 2.79605 14.1499 2.88161 14.212C2.96718 14.2741 3.06844 14.311 3.17393 14.3186C3.27941 14.3261 3.38489 14.3039 3.47841 14.2546L7.50099 12.1405L11.5236 14.2546C11.6334 14.313 11.7609 14.3325 11.8831 14.3112C12.1913 14.2581 12.3986 13.966 12.3454 13.6579L11.5767 9.18021L14.8305 6.00919C14.9191 5.92243 14.9776 5.80912 14.9953 5.68518C15.0431 5.37534 14.827 5.08851 14.517 5.04248Z" fill="#F7C744"/>
<path d="M37.519 5.04248L33.0217 4.38915L31.0113 0.315161C30.9564 0.203618 30.8661 0.113321 30.7545 0.0584341C30.4746 -0.0796674 30.1345 0.0354172 29.9946 0.315161L27.9842 4.38915L23.4869 5.04248C23.3629 5.06018 23.2496 5.11861 23.1628 5.20714C23.0578 5.31494 23 5.45997 23.002 5.61036C23.004 5.76076 23.0656 5.9042 23.1734 6.00919L26.4272 9.18021L25.6585 13.6579C25.6405 13.762 25.652 13.8692 25.6918 13.9671C25.7316 14.0651 25.798 14.1499 25.8836 14.212C25.9691 14.2741 26.0704 14.311 26.1759 14.3186C26.2814 14.3261 26.3868 14.3039 26.4804 14.2546L30.5029 12.1405L34.5255 14.2546C34.6353 14.313 34.7629 14.3325 34.8851 14.3112C35.1933 14.2581 35.4005 13.966 35.3474 13.6579L34.5787 9.18021L37.8325 6.00919C37.9211 5.92243 37.9795 5.80912 37.9972 5.68518C38.0451 5.37534 37.829 5.08851 37.519 5.04248Z" fill="#F7C744"/>
<path d="M60.5209 5.04248L56.0237 4.38915L54.0133 0.315161C53.9583 0.203618 53.868 0.113321 53.7564 0.0584341C53.4766 -0.0796674 53.1365 0.0354172 52.9965 0.315161L50.9861 4.38915L46.4889 5.04248C46.3649 5.06018 46.2515 5.11861 46.1647 5.20714C46.0598 5.31494 46.002 5.45997 46.004 5.61036C46.0059 5.76076 46.0676 5.9042 46.1753 6.00919L49.4292 9.18021L48.6604 13.6579C48.6424 13.762 48.6539 13.8692 48.6937 13.9671C48.7335 14.0651 48.8 14.1499 48.8855 14.212C48.9711 14.2741 49.0724 14.311 49.1778 14.3186C49.2833 14.3261 49.3888 14.3039 49.4823 14.2546L53.5049 12.1405L57.5275 14.2546C57.6373 14.313 57.7648 14.3325 57.887 14.3112C58.1952 14.2581 58.4025 13.966 58.3493 13.6579L57.5806 9.18021L60.8345 6.00919C60.923 5.92243 60.9815 5.80912 60.9992 5.68518C61.047 5.37534 60.8309 5.08851 60.5209 5.04248Z" fill="#F7C744"/>
<path d="M83.5229 5.04248L79.0256 4.38915L77.0152 0.315161C76.9603 0.203618 76.87 0.113321 76.7584 0.0584341C76.4785 -0.0796674 76.1384 0.0354172 75.9985 0.315161L73.9881 4.38915L69.4908 5.04248C69.3668 5.06018 69.2535 5.11861 69.1667 5.20714C69.0617 5.31494 69.0039 5.45997 69.0059 5.61036C69.0079 5.76076 69.0695 5.9042 69.1773 6.00919L72.4311 9.18021L71.6624 13.6579C71.6444 13.762 71.6559 13.8692 71.6957 13.9671C71.7355 14.0651 71.8019 14.1499 71.8875 14.212C71.973 14.2741 72.0743 14.311 72.1798 14.3186C72.2853 14.3261 72.3908 14.3039 72.4843 14.2546L76.5068 12.1405L80.5294 14.2546C80.6392 14.313 80.7668 14.3325 80.889 14.3112C81.1972 14.2581 81.4044 13.966 81.3513 13.6579L80.5826 9.18021L83.8364 6.00919C83.925 5.92243 83.9834 5.80912 84.0011 5.68518C84.049 5.37534 83.8329 5.08851 83.5229 5.04248Z" fill="#F7C744"/>
<path d="M106.525 5.04248L102.028 4.38915L100.017 0.315161C99.9622 0.203618 99.8719 0.113321 99.7603 0.0584341C99.4805 -0.0796674 99.1404 0.0354172 99.0004 0.315161L96.99 4.38915L92.4928 5.04248C92.3688 5.06018 92.2554 5.11861 92.1686 5.20714C92.0637 5.31494 92.0059 5.45997 92.0079 5.61036C92.0099 5.76076 92.0715 5.9042 92.1792 6.00919L95.4331 9.18021L94.6644 13.6579C94.6463 13.762 94.6579 13.8692 94.6976 13.9671C94.7374 14.0651 94.8039 14.1499 94.8894 14.212C94.975 14.2741 95.0763 14.311 95.1817 14.3186C95.2872 14.3261 95.3927 14.3039 95.4862 14.2546L99.5088 12.1405L103.531 14.2546C103.641 14.313 103.769 14.3325 103.891 14.3112C104.199 14.2581 104.406 13.966 104.353 13.6579L103.585 9.18021L106.838 6.00919C106.927 5.92243 106.985 5.80912 107.003 5.68518C107.051 5.37534 106.835 5.08851 106.525 5.04248Z" fill="#F7C744"/>
</svg>
